<svg version="1.1" id="Layer_1" xmlns="http://www.w3.org/2000/svg" xmlns:xlink="http://www.w3.org/1999/xlink" x="0px" y="0px"
	 width="100%" viewBox="0 0 512 512" enable-background="new 0 0 512 512" xml:space="preserve">
<path fill="#010101" opacity="1.000000" stroke="none" 
	d="
M277.187988,477.899109 
	C264.037781,474.423279 251.150391,474.842377 238.488861,477.443390 
	C226.100098,479.988434 214.053986,484.212830 201.656708,486.699066 
	C196.825150,487.667999 191.371033,486.284302 186.330643,485.303406 
	C175.874924,483.268646 166.115219,479.153320 158.539581,471.596893 
	C153.003754,466.075104 147.951981,459.810974 143.850540,453.158783 
	C133.618835,436.563782 121.651062,421.710632 104.601852,411.807831 
	C96.168396,406.909393 86.984276,403.321869 78.388908,398.679962 
	C57.934776,387.633606 47.631351,370.011627 47.377235,347.050323 
	C47.214531,332.348999 49.256149,317.627106 49.186417,302.919739 
	C49.131111,291.254517 45.271358,280.072052 39.867012,269.805267 
	C30.557043,252.118805 25.509550,233.947495 31.176147,214.105530 
	C34.471352,202.567139 41.806084,193.580627 50.128906,185.169434 
	C57.330318,177.891541 64.261757,170.298996 70.776947,162.403564 
	C76.789696,155.117035 79.950798,146.256683 82.726761,137.284851 
	C86.121552,126.312988 88.845535,115.016571 93.453110,104.562859 
	C101.471184,86.371346 116.071594,75.457855 135.656845,72.056160 
	C147.507233,69.997894 159.695541,69.795830 171.482544,67.486420 
	C184.132690,65.007881 195.670990,59.270088 206.223328,51.727886 
	C213.414703,46.587917 220.355972,40.999714 227.963364,36.562138 
	C240.755646,29.100075 254.352753,25.980883 269.386078,29.647507 
	C282.744019,32.905510 293.400513,40.445541 303.868042,48.572849 
	C318.560242,59.980362 334.913483,66.956474 353.555878,68.886185 
	C365.823700,70.156052 378.471161,69.976952 390.031128,75.125031 
	C401.931427,80.424660 411.995880,87.823372 418.580048,99.698128 
	C425.316040,111.846756 427.699402,125.313820 431.773529,138.268402 
	C434.967285,148.423782 439.507355,157.904953 446.334473,165.975586 
	C453.875153,174.889755 462.336365,183.018539 470.078064,191.771194 
	C478.818176,201.652725 484.077362,213.008560 485.571869,226.437698 
	C487.104279,240.207458 482.620392,252.304932 477.016083,264.086304 
	C469.595245,279.686401 463.944031,295.687897 464.161407,313.088074 
	C464.267487,321.578003 466.341614,330.024353 466.996033,338.531158 
	C467.835236,349.439270 466.591553,359.999420 462.206390,370.336884 
	C456.078491,384.782654 445.522583,394.275269 431.780365,400.981537 
	C422.531677,405.494934 413.092133,409.797058 404.425140,415.279877 
	C391.892731,423.207947 382.593964,434.488739 374.592194,446.950592 
	C369.659515,454.632721 364.571594,462.383118 358.442047,469.086761 
	C350.555267,477.712128 340.070953,482.546814 328.719666,485.387177 
	C319.582581,487.673431 310.718750,486.323730 301.827515,483.915466 
	C293.807220,481.743103 285.692902,479.918030 277.187988,477.899109 
M310.970795,276.398407 
	C312.328491,270.397888 313.822540,264.422058 314.919128,258.374207 
	C315.118225,257.276154 314.008240,255.265274 312.962006,254.727448 
	C306.560822,251.436813 299.955902,248.544708 293.522888,245.312775 
	C291.026245,244.058472 290.094391,244.710419 289.262878,247.189697 
	C286.888550,254.268967 284.288605,261.272583 281.619476,268.748230 
	C289.950714,271.022125 298.066925,273.164490 306.122314,275.515228 
	C307.316254,275.863617 308.223297,277.195160 308.570801,278.297668 
	C297.087219,284.026703 285.573120,289.696320 274.154907,295.552826 
	C272.555603,296.373108 270.788116,297.866089 270.179382,299.460358 
	C264.755463,313.665985 259.537903,327.951050 254.352509,342.246460 
	C253.283142,345.194550 252.600830,348.282990 251.498245,352.156586 
	C257.240570,349.356293 261.980225,347.088593 266.681976,344.744904 
	C296.007721,330.127014 325.325867,315.493896 354.644623,300.862061 
	C367.546143,294.423431 380.438965,287.967255 393.345276,281.538239 
	C397.097290,279.669281 398.977966,277.057739 398.837494,272.497559 
	C398.509277,261.842834 398.567627,251.167267 398.811768,240.507996 
	C398.913422,236.068863 397.204193,233.417633 393.332306,231.508636 
	C380.518768,225.191010 367.804840,218.671661 355.017944,212.299454 
	C306.486725,188.114441 257.946167,163.948212 209.399216,139.794815 
	C196.833572,133.543076 184.274841,127.274445 171.626022,121.194389 
	C166.500870,118.730827 164.075867,120.389481 164.052216,126.001511 
	C164.006592,136.833542 164.248856,147.671890 163.940613,158.495331 
	C163.808151,163.146515 166.234695,165.488800 169.766006,167.254242 
	C175.835892,170.288849 182.011871,173.110352 188.111343,176.086823 
	C217.141891,190.253357 246.163620,204.438004 275.178864,218.635895 
	C276.472992,219.269135 277.673279,220.094116 279.542603,221.199600 
	C269.888733,223.531998 261.368835,225.679794 252.803268,227.626556 
	C247.610428,228.806747 244.898331,231.996124 243.124939,236.939575 
	C233.588226,263.523773 223.639938,289.961060 214.212814,316.583313 
	C211.831268,323.308807 207.915390,327.399353 201.404144,330.272034 
	C190.281937,335.179108 179.596085,341.067719 168.648346,346.382141 
	C165.175812,348.067810 163.971848,350.613861 164.004852,354.291260 
	C164.100601,364.955963 164.498428,375.649719 163.860046,386.276917 
	C163.498703,392.292480 167.515671,394.511047 172.635468,391.841064 
	C189.701523,382.940918 206.952621,374.386780 224.274826,365.993134 
	C228.340637,364.023010 230.868149,361.291901 232.345840,357.205414 
	C242.452530,329.255951 252.573883,301.311707 262.725891,273.378662 
	C268.946594,256.262482 275.230103,239.169113 281.602051,221.746689 
	C305.077301,233.265442 328.345612,244.682648 352.059509,256.318481 
	C337.797089,263.566498 324.338470,270.406036 310.970795,276.398407 
z"/>
</svg>
